<svg width="375" height="89" viewBox="0 0 375 89" fill="none" xmlns="http://www.w3.org/2000/svg">
<mask id="path-1-outside-1_2619_2265" maskUnits="userSpaceOnUse" x="0" y="0" width="375" height="89" fill="black">
<rect fill="white" width="375" height="89"/>
<path d="M0 0H375V88H0V0Z"/>
</mask>
<path d="M0 0H375V88H0V0Z" fill="white"/>
<path d="M375 87H0V89H375V87Z" fill="#B5B5B5" mask="url(#path-1-outside-1_2619_2265)"/>
<rect width="65.3996" height="22.872" transform="translate(16 32.564)" fill="white"/>
<path d="M30.1826 48.644C29.1266 49.916 24.016 50.064 22.096 50.064C18.304 50.064 16 47.616 16 44.064C16 40.536 18.328 38.088 22.096 38.088C23.92 38.088 29.1746 39.284 30.2306 40.556L24.832 42.048C24.064 41.208 23.224 40.872 22.096 40.872C20.488 40.872 19.096 42.168 19.096 44.064C19.096 46.128 20.392 47.28 22.096 47.28C23.104 47.28 24.256 46.896 24.88 46.104L30.1826 48.644Z" fill="black"/>
<path d="M44.8035 38.876L37.8195 55.436H34.3875L36.6195 50.276L31.7955 38.876H35.2035L37.6035 44.972L38.2995 47.156L38.9715 44.972L41.3715 38.876H44.8035Z" fill="black"/>
<path d="M52.6494 41.42C50.9214 41.42 49.6734 42.74 49.6734 44.54C49.6734 46.316 50.9214 47.636 52.6494 47.636C54.3294 47.636 55.4814 46.388 55.4814 44.54C55.4814 42.668 54.3294 41.42 52.6494 41.42ZM46.6734 50.156V32.564H49.7214V38.828L49.6734 39.644C50.1774 38.972 51.7134 38.588 52.7694 38.588C56.5374 38.588 58.6495 41.348 58.6495 44.54C58.6495 48.14 56.4894 50.468 52.7694 50.468C51.8574 50.468 50.3934 50.036 49.7934 49.316L49.8174 49.964V50.156H46.6734Z" fill="black"/>
<path d="M71.3377 48.716C70.4497 49.868 68.4098 50.564 66.6578 50.564C62.8418 50.564 60.7058 47.948 60.7058 44.564C60.7058 41.108 62.8178 38.588 66.5378 38.588C70.2338 38.588 72.3457 41.108 72.3457 44.564C72.3457 44.948 72.3457 45.188 72.3217 45.524H63.8258C63.9938 46.94 65.0498 47.828 66.6578 47.828C67.8098 47.828 68.8897 47.444 69.5617 46.7L71.3377 48.716ZM63.8738 43.46H69.1537C69.0097 42.188 67.9538 41.324 66.5378 41.324C65.1218 41.324 63.9938 42.188 63.8738 43.46Z" fill="black"/>
<path d="M80.7516 41.708C80.1276 41.492 79.5756 41.42 78.9276 41.42C78.4956 41.42 78.1356 41.444 77.7996 41.588V50.156H74.7036V39.38C75.6396 38.9 77.2476 38.564 78.8076 38.564C79.4796 38.564 80.6796 38.636 81.3996 38.9L80.7516 41.708Z" fill="black"/>
<path fill-rule="evenodd" clip-rule="evenodd" d="M351.5 37.75H326.5V35.25H351.5V37.75Z" fill="#080341"/>
<path fill-rule="evenodd" clip-rule="evenodd" d="M351.5 45.25H326.5V42.75H351.5V45.25Z" fill="#080341"/>
<path fill-rule="evenodd" clip-rule="evenodd" d="M351.5 52.75H326.5V50.25H351.5V52.75Z" fill="#080341"/>
</svg>
